<mxfile host="65bd71144e">
    <diagram id="dbcdc022-8115-a1c9-aecf-92c7b94d01f6" name="Page-1">
        <mxGraphModel dx="717" dy="460" grid="1" gridSize="10" guides="1" tooltips="1" connect="1" arrows="1" fold="1" page="1" pageScale="1" pageWidth="827" pageHeight="1169" math="0" shadow="0">
            <root>
                <mxCell id="0"/>
                <mxCell id="1" parent="0"/>
                <mxCell id="2" value="" style="endArrow=none;html=1;" parent="1" edge="1">
                    <mxGeometry width="50" height="50" relative="1" as="geometry">
                        <mxPoint x="400" y="500" as="sourcePoint"/>
                        <mxPoint x="400" y="80" as="targetPoint"/>
                    </mxGeometry>
                </mxCell>
                <mxCell id="4" value="Имена" style="text;html=1;strokeColor=none;fillColor=none;align=center;verticalAlign=middle;whiteSpace=wrap;rounded=0;fontSize=30;" parent="1" vertex="1">
                    <mxGeometry x="100" y="20" width="110" height="20" as="geometry"/>
                </mxCell>
                <mxCell id="5" value="Объекты" style="text;html=1;strokeColor=none;fillColor=none;align=center;verticalAlign=middle;whiteSpace=wrap;rounded=0;fontSize=30;" parent="1" vertex="1">
                    <mxGeometry x="520" y="20" width="110" height="20" as="geometry"/>
                </mxCell>
                <mxCell id="6" value="[1, 2, 3]" style="ellipse;whiteSpace=wrap;html=1;aspect=fixed;fontSize=30;" parent="1" vertex="1">
                    <mxGeometry x="540" y="110" width="110" height="110" as="geometry"/>
                </mxCell>
                <mxCell id="17" style="edgeStyle=orthogonalEdgeStyle;rounded=0;html=1;exitX=1;exitY=0.5;entryX=0;entryY=0.5;jettySize=auto;orthogonalLoop=1;fontSize=30;" parent="1" source="9" target="6" edge="1">
                    <mxGeometry relative="1" as="geometry"/>
                </mxCell>
                <mxCell id="9" value="l1" style="rounded=0;whiteSpace=wrap;html=1;fontSize=30;" parent="1" vertex="1">
                    <mxGeometry x="130" y="120" width="70" height="60" as="geometry"/>
                </mxCell>
                <mxCell id="12" value="Ссылки" style="text;html=1;strokeColor=none;fillColor=none;align=center;verticalAlign=middle;whiteSpace=wrap;rounded=0;fontSize=30;" parent="1" vertex="1">
                    <mxGeometry x="373.5" y="20" width="40" height="20" as="geometry"/>
                </mxCell>
                <mxCell id="21" style="edgeStyle=orthogonalEdgeStyle;rounded=0;html=1;exitX=1;exitY=0.5;jettySize=auto;orthogonalLoop=1;fontSize=30;" parent="1" source="15" target="6" edge="1">
                    <mxGeometry relative="1" as="geometry">
                        <Array as="points">
                            <mxPoint x="370" y="240"/>
                            <mxPoint x="370" y="200"/>
                        </Array>
                    </mxGeometry>
                </mxCell>
                <mxCell id="15" value="l2" style="rounded=0;whiteSpace=wrap;html=1;fontSize=30;" parent="1" vertex="1">
                    <mxGeometry x="130" y="210" width="70" height="60" as="geometry"/>
                </mxCell>
                <mxCell id="25" style="edgeStyle=orthogonalEdgeStyle;rounded=0;html=1;exitX=1;exitY=0.5;entryX=0;entryY=0.5;jettySize=auto;orthogonalLoop=1;fontSize=30;" parent="1" source="22" target="24" edge="1">
                    <mxGeometry relative="1" as="geometry"/>
                </mxCell>
                <mxCell id="22" value="a" style="rounded=0;whiteSpace=wrap;html=1;fontSize=30;" parent="1" vertex="1">
                    <mxGeometry x="130" y="310" width="70" height="60" as="geometry"/>
                </mxCell>
                <mxCell id="28" style="edgeStyle=orthogonalEdgeStyle;rounded=0;html=1;exitX=1;exitY=0.5;jettySize=auto;orthogonalLoop=1;fontSize=30;" parent="1" source="23" target="27" edge="1">
                    <mxGeometry relative="1" as="geometry"/>
                </mxCell>
                <mxCell id="23" value="b" style="rounded=0;whiteSpace=wrap;html=1;fontSize=30;" parent="1" vertex="1">
                    <mxGeometry x="130" y="400" width="70" height="60" as="geometry"/>
                </mxCell>
                <mxCell id="24" value="5" style="ellipse;whiteSpace=wrap;html=1;aspect=fixed;fontSize=30;" parent="1" vertex="1">
                    <mxGeometry x="580" y="290" width="80" height="80" as="geometry"/>
                </mxCell>
                <mxCell id="27" value="6" style="ellipse;whiteSpace=wrap;html=1;aspect=fixed;fontSize=30;" parent="1" vertex="1">
                    <mxGeometry x="575" y="390" width="80" height="80" as="geometry"/>
                </mxCell>
            </root>
        </mxGraphModel>
    </diagram>
</mxfile>